<svg width="35" height="48" viewBox="0 0 35 48" fill="none" xmlns="http://www.w3.org/2000/svg">
<path d="M21 29.18C21.4958 29.18 21.926 28.9862 22.2906 28.5987C22.6552 28.2112 22.8375 27.754 22.8375 27.227C22.8375 26.7 22.6552 26.2428 22.2906 25.8552C21.926 25.4678 21.4958 25.274 21 25.274C20.5042 25.274 20.074 25.4678 19.7094 25.8552C19.3448 26.2428 19.1625 26.7 19.1625 27.227C19.1625 27.754 19.3448 28.2112 19.7094 28.5987C20.074 28.9862 20.5042 29.18 21 29.18ZM19.6875 23.228H22.3125C22.3125 22.329 22.4 21.6702 22.575 21.2517C22.75 20.8332 23.1583 20.283 23.8 19.601C24.675 18.671 25.2583 17.9192 25.55 17.3457C25.8417 16.7723 25.9875 16.098 25.9875 15.323C25.9875 13.928 25.5281 12.7887 24.6094 11.9052C23.6906 11.0217 22.4875 10.58 21 10.58C19.8042 10.58 18.7615 10.9365 17.8719 11.6495C16.9823 12.3625 16.3625 13.308 16.0125 14.486L18.375 15.509C18.6375 14.734 18.9948 14.1528 19.4469 13.7652C19.899 13.3777 20.4167 13.184 21 13.184C21.7 13.184 22.2688 13.3932 22.7063 13.8117C23.1438 14.2302 23.3625 14.796 23.3625 15.509C23.3625 15.943 23.2458 16.3537 23.0125 16.7412C22.7792 17.1287 22.3708 17.617 21.7875 18.206C20.825 19.105 20.2344 19.8102 20.0156 20.3217C19.7969 20.8332 19.6875 21.802 19.6875 23.228ZM10.5 34.76C9.5375 34.76 8.71354 34.3957 8.02812 33.6672C7.34271 32.9387 7 32.063 7 31.04V8.72C7 7.697 7.34271 6.82125 8.02812 6.09275C8.71354 5.36425 9.5375 5 10.5 5H31.5C32.4625 5 33.2865 5.36425 33.9719 6.09275C34.6573 6.82125 35 7.697 35 8.72V31.04C35 32.063 34.6573 32.9387 33.9719 33.6672C33.2865 34.3957 32.4625 34.76 31.5 34.76H10.5ZM10.5 31.04H31.5V8.72H10.5V31.04ZM3.5 42.2C2.5375 42.2 1.71354 41.8357 1.02813 41.1073C0.342708 40.3787 0 39.503 0 38.48V12.44H3.5V38.48H28V42.2H3.5Z" fill="white"/>
</svg>
