<svg width="41" height="48" viewBox="0 0 41 48" fill="none" xmlns="http://www.w3.org/2000/svg">
<path d="M13.5 34.2848C12.5375 34.2848 11.7135 33.9361 11.0281 33.2386C10.3427 32.5411 10 31.7026 10 30.7232V9.35338C10 8.37393 10.3427 7.53546 11.0281 6.83798C11.7135 6.14049 12.5375 5.79175 13.5 5.79175H34.5C35.4625 5.79175 36.2865 6.14049 36.9719 6.83798C37.6573 7.53546 38 8.37393 38 9.35338V30.7232C38 31.7026 37.6573 32.5411 36.9719 33.2386C36.2865 33.9361 35.4625 34.2848 34.5 34.2848H13.5ZM13.5 30.7232H34.5V9.35338H13.5V30.7232ZM6.5 41.4081C5.5375 41.4081 4.71354 41.0593 4.02813 40.3618C3.34271 39.6643 3 38.8259 3 37.8464V12.915H6.5V37.8464H31V41.4081H6.5ZM24 20.0383C23.5042 20.0383 23.0885 19.8676 22.7531 19.5263C22.4177 19.185 22.25 18.762 22.25 18.2575C22.25 17.7529 22.4177 17.3299 22.7531 16.9886C23.0885 16.6473 23.5042 16.4766 24 16.4766C24.4958 16.4766 24.9115 16.6473 25.2469 16.9886C25.5823 17.3299 25.75 17.7529 25.75 18.2575C25.75 18.762 25.5823 19.185 25.2469 19.5263C24.9115 19.8676 24.4958 20.0383 24 20.0383ZM24 28.9423C26.3625 26.8944 28.1198 25.0023 29.2719 23.266C30.424 21.5297 31 19.9196 31 18.4355C31 16.2095 30.2927 14.4361 28.8781 13.1154C27.4635 11.7946 25.8375 11.1342 24 11.1342C22.1625 11.1342 20.5365 11.7946 19.1219 13.1154C17.7073 14.4361 17 16.2095 17 18.4355C17 19.9196 17.576 21.5297 18.7281 23.266C19.8802 25.0023 21.6375 26.8944 24 28.9423Z" fill="white"/>
</svg>
