<svg width="19" height="26" viewBox="0 0 19 26" fill="none" xmlns="http://www.w3.org/2000/svg">
<path d="M9.33179 0.700012C4.49429 0.700012 0.581787 4.61251 0.581787 9.45001C0.581787 16.0125 9.33179 25.7 9.33179 25.7C9.33179 25.7 18.0818 16.0125 18.0818 9.45001C18.0818 4.61251 14.1693 0.700012 9.33179 0.700012ZM3.08179 9.45001C3.08179 6.00001 5.88179 3.20001 9.33179 3.20001C12.7818 3.20001 15.5818 6.00001 15.5818 9.45001C15.5818 13.05 11.9818 18.4375 9.33179 21.8C6.73179 18.4625 3.08179 13.0125 3.08179 9.45001Z" fill="black"/>
<path d="M9.33179 12.575C11.0577 12.575 12.4568 11.1759 12.4568 9.45001C12.4568 7.72412 11.0577 6.32501 9.33179 6.32501C7.6059 6.32501 6.20679 7.72412 6.20679 9.45001C6.20679 11.1759 7.6059 12.575 9.33179 12.575Z" fill="black"/>
</svg>
