<svg width="41" height="41" viewBox="0 0 41 41" fill="none" xmlns="http://www.w3.org/2000/svg">
<path d="M40.5 13.3601L38.48 19.0001V18.9801C37.44 18.6001 36.42 18.6601 35.42 19.1401C34.42 19.6201 33.72 20.3801 33.34 21.4201C32.96 22.4601 33.02 23.4801 33.48 24.4801C33.96 25.4801 34.72 26.1601 35.78 26.5401V26.5601L33.76 32.2001L3.64 21.4401L5.62 15.8601C6.66 16.2401 7.68 16.1801 8.68 15.7001C9.68 15.2401 10.36 14.4801 10.74 13.4401C11.12 12.4001 11.06 11.3801 10.58 10.3801C10.3613 9.90461 10.0481 9.47856 9.65962 9.12787C9.27111 8.77717 8.81533 8.50915 8.32 8.3401L10.36 2.6001L40.5 13.3601ZM30.56 24.7401L33.3 17.2201C33.54 16.6001 33.5 15.9201 33.22 15.3201C32.94 14.7201 32.44 14.2601 31.82 14.0201L16.78 8.5601C15.5 8.1001 14.04 8.8001 13.58 10.0401L10.84 17.5601C10.36 18.8601 11.04 20.3001 12.32 20.7601L27.36 26.2401C27.64 26.3401 27.92 26.4001 28.22 26.4001C29.26 26.4001 30.22 25.7401 30.56 24.7401ZM16.44 9.5001L31.46 14.9601C31.84 15.1001 32.14 15.3801 32.32 15.7401C32.48 16.1001 32.5 16.5001 32.36 16.8801L29.62 24.4001C29.36 25.1601 28.46 25.5801 27.7 25.3001L12.68 19.8201C12.3061 19.6847 12.0013 19.4064 11.8326 19.0464C11.6638 18.6864 11.6449 18.2741 11.78 17.9001L14.52 10.3801C14.72 9.8001 15.3 9.4001 15.92 9.4001C16.1 9.4001 16.26 9.4401 16.44 9.5001ZM30.08 33.7801C30.78 34.3201 31.58 34.6001 32.48 34.6001H32.5V40.6001H0.5V34.6801C1.6 34.6801 2.56 34.2801 3.32 33.5001C4.1 32.7401 4.5 31.7801 4.5 30.6801C4.5 29.5801 4.1 28.6401 3.32 27.8601C2.54 27.0801 1.6 26.6801 0.5 26.6801V20.6001H2.6L2.04 22.2001L7.78 24.2401C6.76 24.5601 6 25.4801 6 26.6001V34.6001C6 35.9801 7.12 37.1001 8.5 37.1001H24.5C25.88 37.1001 27 35.9801 27 34.6001V31.1001L28.66 31.7001C28.9 32.5601 29.38 33.2601 30.08 33.7801ZM7 34.6001V26.6001C7 25.7801 7.68 25.1001 8.5 25.1001H10.16L26 30.7601V34.6001C26 35.4201 25.32 36.1001 24.5 36.1001H8.5C7.68 36.1001 7 35.4201 7 34.6001Z" fill="white"/>
</svg>
