<svg width="45" height="45" viewBox="0 0 45 45" fill="none" xmlns="http://www.w3.org/2000/svg">
<path d="M22.5 45C10.093 45 0 34.907 0 22.5C0 10.093 10.093 0 22.5 0C34.907 0 45 10.093 45 22.5C45 34.907 34.907 45 22.5 45ZM22.5 1.52739C10.9361 1.52739 1.52739 10.9361 1.52739 22.5C1.52739 34.0639 10.9361 43.4726 22.5 43.4726C34.0639 43.4726 43.4726 34.0639 43.4726 22.5C43.4726 10.9361 34.0639 1.52739 22.5 1.52739Z" fill="#FF0209"/>
<path d="M36.1869 17.9957C36.0159 16.3446 35.6478 14.5193 34.293 13.5601C33.2437 12.8163 31.8644 12.7888 30.5768 12.7903C27.855 12.7919 25.1317 12.7949 22.4099 12.7964C19.7919 12.7995 17.174 12.801 14.556 12.8041C13.4624 12.8056 12.3993 12.7201 11.3836 13.1935C10.5115 13.5998 9.82873 14.3727 9.41786 15.2326C8.84814 16.4286 8.72901 17.7834 8.66028 19.1061C8.53351 21.5148 8.54725 23.9296 8.69846 26.3368C8.80996 28.0933 9.09253 30.0346 10.4504 31.1542C11.654 32.1454 13.3524 32.1943 14.9134 32.1958C19.8683 32.2004 24.8247 32.205 29.7811 32.2081C30.4165 32.2096 31.0793 32.1974 31.727 32.1271C33.0008 31.9896 34.2151 31.6246 35.0337 30.6807C35.8601 29.7291 36.0724 28.4048 36.1976 27.1508C36.5031 24.1083 36.5001 21.0367 36.1869 17.9957ZM19.5445 26.7644V18.2339L26.931 22.4984L19.5445 26.7644Z" fill="#FF0209"/>
</svg>
