<svg width="45" height="45" viewBox="0 0 45 45" fill="none" xmlns="http://www.w3.org/2000/svg">
<path d="M22.5495 45H22.4505C10.0714 45 0 34.9286 0 22.5495V22.4505C0 10.0714 10.0714 0 22.4505 0H22.5495C34.9286 0 45 10.0714 45 22.4505V22.5495C45 34.9286 34.9286 45 22.5495 45ZM22.4505 1.5232C10.9107 1.5232 1.5232 10.9107 1.5232 22.4505V22.5495C1.5232 34.0893 10.9107 43.4768 22.4505 43.4768H22.5495C34.0893 43.4768 43.4768 34.0893 43.4768 22.5495V22.4505C43.4768 10.9107 34.0893 1.5232 22.5495 1.5232H22.4505Z" fill="url(#paint0_linear_430_6989)"/>
<path d="M29.2272 9.60687H15.7742C12.0576 9.60687 9.03406 12.6304 9.03406 16.3471V28.6545C9.03406 32.3712 12.0576 35.3947 15.7742 35.3947H29.2272C32.9438 35.3947 35.9673 32.3712 35.9673 28.6545V16.3471C35.9673 12.6304 32.9438 9.60687 29.2272 9.60687ZM11.4118 16.3471C11.4118 13.9419 13.3691 11.9846 15.7742 11.9846H29.2272C31.6323 11.9846 33.5896 13.9419 33.5896 16.3471V28.6545C33.5896 31.0597 31.6323 33.017 29.2272 33.017H15.7742C13.3691 33.017 11.4118 31.0597 11.4118 28.6545V16.3471Z" fill="url(#paint1_linear_430_6989)"/>
<path d="M22.501 28.7688C25.9571 28.7688 28.7705 25.9569 28.7705 22.4992C28.7705 19.0416 25.9586 16.2297 22.501 16.2297C19.0433 16.2297 16.2314 19.0416 16.2314 22.4992C16.2314 25.9569 19.0433 28.7688 22.501 28.7688ZM22.501 18.609C24.6472 18.609 26.3927 20.3546 26.3927 22.5008C26.3927 24.647 24.6472 26.3926 22.501 26.3926C20.3548 26.3926 18.6092 24.647 18.6092 22.5008C18.6092 20.3546 20.3548 18.609 22.501 18.609Z" fill="url(#paint2_linear_430_6989)"/>
<path d="M29.3506 17.2427C30.2813 17.2427 31.0398 16.4857 31.0398 15.5535C31.0398 14.6213 30.2828 13.8643 29.3506 13.8643C28.4184 13.8643 27.6614 14.6213 27.6614 15.5535C27.6614 16.4857 28.4184 17.2427 29.3506 17.2427Z" fill="url(#paint3_linear_430_6989)"/>
<defs>
<linearGradient id="paint0_linear_430_6989" x1="6.58329" y1="38.4167" x2="38.4167" y2="6.58329" gradientUnits="userSpaceOnUse">
<stop stop-color="#FAAD4F"/>
<stop offset="0.35" stop-color="#DD2A7B"/>
<stop offset="0.62" stop-color="#9537B0"/>
<stop offset="1" stop-color="#515BD4"/>
</linearGradient>
<linearGradient id="paint1_linear_430_6989" x1="11.296" y1="33.704" x2="33.7039" y2="11.2976" gradientUnits="userSpaceOnUse">
<stop stop-color="#FAAD4F"/>
<stop offset="0.35" stop-color="#DD2A7B"/>
<stop offset="0.62" stop-color="#9537B0"/>
<stop offset="1" stop-color="#515BD4"/>
</linearGradient>
<linearGradient id="paint2_linear_430_6989" x1="18.07" y1="26.9318" x2="26.9304" y2="18.0698" gradientUnits="userSpaceOnUse">
<stop stop-color="#FAAD4F"/>
<stop offset="0.35" stop-color="#DD2A7B"/>
<stop offset="0.62" stop-color="#9537B0"/>
<stop offset="1" stop-color="#515BD4"/>
</linearGradient>
<linearGradient id="paint3_linear_430_6989" x1="28.1564" y1="16.7477" x2="30.5448" y2="14.3593" gradientUnits="userSpaceOnUse">
<stop stop-color="#FAAD4F"/>
<stop offset="0.35" stop-color="#DD2A7B"/>
<stop offset="0.62" stop-color="#9537B0"/>
<stop offset="1" stop-color="#515BD4"/>
</linearGradient>
</defs>
</svg>
