<svg width="45" height="45" viewBox="0 0 45 45" fill="none" xmlns="http://www.w3.org/2000/svg">
<path d="M33.5227 18.1566V22.2616C32.8052 22.1915 31.873 22.0286 30.8418 21.6508C29.4953 21.1573 28.493 20.4825 27.8365 19.96V28.2569L27.8198 28.231C27.8304 28.3955 27.8365 28.5631 27.8365 28.7322C27.8365 32.8524 24.484 36.2065 20.3622 36.2065C16.2404 36.2065 12.8878 32.8524 12.8878 28.7322C12.8878 24.6119 16.2404 21.2563 20.3622 21.2563C20.7658 21.2563 21.1619 21.2883 21.5488 21.3507V25.3964C21.1771 25.2638 20.778 25.1922 20.3622 25.1922C18.411 25.1922 16.8223 26.7794 16.8223 28.7322C16.8223 30.6849 18.411 32.2721 20.3622 32.2721C22.3134 32.2721 23.9021 30.6834 23.9021 28.7322C23.9021 28.6591 23.9006 28.5859 23.896 28.5128V12.3897H27.998C28.0132 12.737 28.0269 13.0873 28.0422 13.4346C28.0696 14.1185 28.3133 14.7751 28.7383 15.3127C29.2364 15.9449 29.9721 16.6791 31.0048 17.2655C31.972 17.8123 32.8799 18.0484 33.5227 18.1596V18.1566Z" fill="#FF004F"/>
<path d="M32.1121 14.8239V18.9274C31.3947 18.8573 30.4625 18.6943 29.4313 18.3166C28.0848 17.8231 27.0825 17.1483 26.426 16.6258V24.9227L26.4092 24.8968C26.4199 25.0613 26.426 25.2289 26.426 25.3979C26.426 29.5182 23.0734 32.8723 18.9517 32.8723C14.8299 32.8723 11.4773 29.5182 11.4773 25.3979C11.4773 21.2777 14.8299 17.9221 18.9517 17.9221C19.3553 17.9221 19.7513 17.9541 20.1382 18.0165V22.0621C19.7666 21.9296 19.3675 21.858 18.9517 21.858C17.0004 21.858 15.4117 23.4452 15.4117 25.3979C15.4117 27.3507 17.0004 28.9379 18.9517 28.9379C20.9029 28.9379 22.4916 27.3492 22.4916 25.3979C22.4916 25.3248 22.49 25.2517 22.4855 25.1786V9.05548H26.5875C26.6027 9.40277 26.6164 9.75311 26.6316 10.1004C26.6591 10.7843 26.9028 11.4408 27.3277 11.9785C27.8258 12.6106 28.5615 13.3448 29.5943 13.9313C30.5615 14.4781 31.4693 14.7142 32.1121 14.8254V14.8239Z" fill="#00F7EF"/>
<path d="M33.0095 16.6182V20.7232C32.292 20.6531 31.3598 20.4901 30.3286 20.1124C28.9821 19.6189 27.9799 18.9441 27.3233 18.4216V26.7185L27.3066 26.6926C27.3173 26.8571 27.3233 27.0247 27.3233 27.1938C27.3233 31.314 23.9708 34.6681 19.849 34.6681C15.7272 34.6681 12.3746 31.314 12.3746 27.1938C12.3746 23.0735 15.7272 19.7179 19.849 19.7179C20.2526 19.7179 20.6487 19.7499 21.0356 19.8123V23.858C20.6639 23.7254 20.2648 23.6538 19.849 23.6538C17.8978 23.6538 16.3091 25.241 16.3091 27.1938C16.3091 29.1465 17.8978 30.7337 19.849 30.7337C21.8002 30.7337 23.3889 29.145 23.3889 27.1938C23.3889 27.1207 23.3874 27.0475 23.3828 26.9744V10.8513H27.4848C27.5 11.1986 27.5138 11.5489 27.529 11.8962C27.5564 12.5802 27.8001 13.2366 28.2251 13.7743C28.7232 14.4065 29.4589 15.1407 30.4916 15.7271C31.4588 16.2739 32.3667 16.51 33.0095 16.6212V16.6182Z" fill="black"/>
<path d="M22.5495 45H22.4505C10.0714 45 0 34.9286 0 22.5495V22.4505C0 10.0714 10.0714 0 22.4505 0H22.5495C34.9286 0 45 10.0714 45 22.4505V22.5495C45 34.9286 34.9286 45 22.5495 45ZM22.4505 1.5232C10.9107 1.5232 1.5232 10.9107 1.5232 22.4505V22.5495C1.5232 34.0893 10.9107 43.4768 22.4505 43.4768H22.5495C34.0893 43.4768 43.4768 34.0893 43.4768 22.5495V22.4505C43.4768 10.9107 34.0893 1.5232 22.5495 1.5232H22.4505Z" fill="black"/>
</svg>
