<svg width="45" height="45" viewBox="0 0 45 45" fill="none" xmlns="http://www.w3.org/2000/svg">
<path d="M22.5495 45H22.4505C10.0714 45 0 34.9286 0 22.5495V22.4505C0 10.0714 10.0714 0 22.4505 0H22.5495C34.9286 0 45 10.0714 45 22.4505V22.5495C45 34.9286 34.9286 45 22.5495 45ZM22.4505 1.5232C10.9107 1.5232 1.5232 10.9107 1.5232 22.4505V22.5495C1.5232 34.0893 10.9107 43.4768 22.4505 43.4768H22.5495C34.0893 43.4768 43.4768 34.0893 43.4768 22.5495V22.4505C43.4768 10.9107 34.0893 1.5232 22.5495 1.5232H22.4505Z" fill="#383D38"/>
<path d="M9.57942 10.6046L19.6051 24.0087L9.51697 34.9073H11.7881L20.6211 25.3659L27.7573 34.9073H35.4845L24.8952 20.7491L34.2858 10.6046H32.0147L23.8808 19.3919L17.3082 10.6046H9.58093H9.57942ZM12.9183 12.277H16.4673L32.1426 33.2348H28.5936L12.9183 12.277Z" fill="#383D38"/>
</svg>
