<svg width="24" height="24" viewBox="0 0 24 24" fill="none" xmlns="http://www.w3.org/2000/svg">
<path d="M18.9 17.6364L13.425 12.6591L15.525 10.75L21 15.7273L18.9 17.6364ZM5.1 17.6364L3 15.7273L9.9 9.45455L8.2 7.90909L7.5 8.54546L6.225 7.38636V9.25L5.525 9.88636L2.5 7.13636L3.2 6.5H5.25L4 5.36364L7.55 2.13636C7.88333 1.83333 8.24167 1.61364 8.625 1.47727C9.00833 1.34091 9.4 1.27273 9.8 1.27273C10.2 1.27273 10.5917 1.34091 10.975 1.47727C11.3583 1.61364 11.7167 1.83333 12.05 2.13636L9.75 4.22727L11 5.36364L10.3 6L12 7.54545L14.25 5.5C14.1833 5.33333 14.1292 5.15909 14.0875 4.97727C14.0458 4.79545 14.025 4.61364 14.025 4.43182C14.025 3.53788 14.3625 2.78409 15.0375 2.17045C15.7125 1.55682 16.5417 1.25 17.525 1.25C17.775 1.25 18.0125 1.27273 18.2375 1.31818C18.4625 1.36364 18.6917 1.43182 18.925 1.52273L16.45 3.77273L18.25 5.40909L20.725 3.15909C20.8417 3.37121 20.9208 3.57955 20.9625 3.78409C21.0042 3.98864 21.025 4.20455 21.025 4.43182C21.025 5.32576 20.6875 6.07955 20.0125 6.69318C19.3375 7.30682 18.5083 7.61364 17.525 7.61364C17.325 7.61364 17.125 7.59849 16.925 7.56818C16.725 7.53788 16.5333 7.48485 16.35 7.40909L5.1 17.6364Z" fill="#1C1B1F"/>
</svg>
