<svg width="24" height="25" viewBox="0 0 24 25" fill="none" xmlns="http://www.w3.org/2000/svg">
<path d="M13.325 11.3636C12.7917 10.6818 12.0875 10.2083 11.2125 9.94317C10.3375 9.67801 9.43333 9.54544 8.5 9.54544C7.56667 9.54544 6.6625 9.67801 5.7875 9.94317C4.9125 10.2083 4.20833 10.6818 3.675 11.3636H13.325ZM1 13.1818C1 11.5303 1.75833 10.2083 3.275 9.21589C4.79167 8.22347 6.53333 7.72726 8.5 7.72726C10.4667 7.72726 12.2083 8.22347 13.725 9.21589C15.2417 10.2083 16 11.5303 16 13.1818H1ZM1 16.8182V15H16V16.8182H1ZM18 20.4545V18.6363H19.4L20.8 5.90907H11.25L11 4.09089H16V0.454529H18V4.09089H23L21.35 19.1363C21.3 19.5151 21.1167 19.8295 20.8 20.0795C20.4833 20.3295 20.1167 20.4545 19.7 20.4545H18ZM2 20.4545C1.71667 20.4545 1.47917 20.3674 1.2875 20.1932C1.09583 20.0189 1 19.803 1 19.5454V18.6363H16V19.5454C16 19.803 15.9042 20.0189 15.7125 20.1932C15.5208 20.3674 15.2833 20.4545 15 20.4545H2Z" fill="#1C1B1F"/>
</svg>
