<svg width="47" height="24" viewBox="0 0 47 24" fill="none" xmlns="http://www.w3.org/2000/svg">
<path d="M2.13924 14.9649V11.996L2.50173 9.83682L4.57307 8.75722V5.51842H8.71577L10.7871 3.35921L13.8941 5.51842L17.0012 2.27961L21.1438 4.43882V6.59802H23.2152L26.3222 3.35921H28.3936L32.5363 5.51842L35.6433 3.35921L39.786 4.43882L41.8573 1.20001L43.9287 5.51842L46 7.67762L44.9643 9.83682L46 11.996L43.9287 14.1552L46 16.3144L41.8573 18.4736L36.8861 21.4425L31.7595 20.6328H29.481L30.4649 22.792L28.9114 22.2522L27.3579 19.5532L23.2152 23.2L21.1438 20.6328L18.0368 22.792L8.71577 20.6328L5.60875 22.792L2.70886 19.8231L3.27848 16.5843L1 17.394L2.13924 14.9649Z" fill="#0A0113" stroke="black"/>
<path d="M13.5366 13.8212C13.5233 13.854 13.51 13.8869 13.4967 13.9197C13.4828 13.9447 13.4731 13.9732 13.4676 14.0052C13.5009 14.0331 13.5306 14.0653 13.5567 14.1017C13.59 14.1296 13.608 14.163 13.6108 14.2019C13.613 14.2331 13.6075 14.2651 13.5942 14.2979C13.5881 14.3221 13.5898 14.3455 13.5992 14.3681C13.572 14.4259 13.5407 14.4803 13.5052 14.5312C13.4775 14.5813 13.4578 14.6345 13.4462 14.6907C13.4173 14.7252 13.3924 14.7592 13.3713 14.7929C13.358 14.8257 13.3447 14.8586 13.3314 14.8914C13.2937 14.9111 13.2684 14.9413 13.2557 14.9819C13.2501 15.0139 13.2327 15.0433 13.2033 15.07C13.1977 15.102 13.1642 15.1802 13.1026 15.3045C13.0411 15.4289 12.9723 15.5619 12.8964 15.7035C12.8204 15.8451 12.748 15.9824 12.6793 16.1154C12.6105 16.2484 12.562 16.336 12.5337 16.3783C12.521 16.4189 12.5038 16.4522 12.4822 16.4781C12.4683 16.5031 12.4508 16.5324 12.4298 16.5661C12.4159 16.5911 12.4062 16.6197 12.4007 16.6517C12.3946 16.6759 12.3843 16.6966 12.3699 16.7138C12.3566 16.7467 12.3391 16.776 12.3175 16.8019C12.3036 16.8269 12.2903 16.8598 12.2776 16.9004C12.2071 17.01 12.1381 17.1391 12.0704 17.2877C12.0028 17.4362 11.9379 17.5688 11.8758 17.6854C11.8415 17.7519 11.8071 17.8184 11.7727 17.8849C11.7461 17.9505 11.7156 18.0166 11.6812 18.0831C11.6468 18.1496 11.6122 18.2122 11.5772 18.2709C11.5423 18.3296 11.5076 18.3922 11.4733 18.4587C11.4145 18.5121 11.3643 18.5763 11.3227 18.6515C11.2805 18.7188 11.2301 18.7792 11.1713 18.8326C11.0703 18.8434 11.0048 18.8032 10.9748 18.7122C10.8721 18.6996 10.8216 18.705 10.8233 18.7284C10.825 18.7518 10.8264 18.7713 10.8275 18.7869C10.7975 18.8058 10.7759 18.8316 10.7626 18.8645C10.7571 18.8965 10.7393 18.9219 10.7094 18.9408C10.6461 18.9319 10.5898 18.9104 10.5404 18.8765C10.4993 18.8494 10.4402 18.844 10.3631 18.8601C10.3286 18.8166 10.2909 18.7814 10.2498 18.7544C10.2082 18.7196 10.1705 18.6844 10.1366 18.6487C10.1177 18.6036 10.0916 18.5672 10.0583 18.5393C10.0328 18.5106 10.0072 18.482 9.98171 18.4533C9.95561 18.4168 9.9298 18.3842 9.90426 18.3556C9.87872 18.3269 9.85319 18.2982 9.82765 18.2695C9.76826 18.2052 9.70914 18.1448 9.6503 18.0883C9.59867 18.0231 9.55092 17.9575 9.50706 17.8916C9.43822 17.8047 9.36938 17.7178 9.30054 17.631C9.23891 17.5355 9.17368 17.4443 9.10484 17.3574C9.07042 17.314 9.036 17.2706 9.00158 17.2271C8.96716 17.1837 8.93663 17.1399 8.90997 17.0956C8.89165 17.0583 8.865 17.014 8.83002 16.9628C8.80281 16.9108 8.76923 16.879 8.72927 16.8676C8.70927 16.8069 8.67874 16.763 8.63766 16.736C8.59659 16.709 8.55496 16.6742 8.51277 16.6316C8.45393 16.5751 8.3987 16.5142 8.34707 16.4491C8.29488 16.3761 8.24269 16.3032 8.19051 16.2303C8.01952 16.0287 7.85659 15.8302 7.7017 15.6347C7.55458 15.4384 7.4069 15.2344 7.25867 15.0225C7.28858 14.8937 7.30131 14.7981 7.29685 14.7358C7.29238 14.6734 7.30818 14.6207 7.34423 14.5776C7.342 14.5464 7.34642 14.4988 7.35749 14.4348C7.44621 14.2526 7.53216 14.0863 7.61533 13.9361C7.6913 13.7945 7.74175 13.6792 7.76669 13.5901C7.7994 13.5003 7.83182 13.4065 7.86397 13.3088C7.90114 13.2813 7.93026 13.2507 7.95133 13.217C7.97185 13.1756 8.00041 13.1372 8.03702 13.1019C8.04642 13.0145 8.07636 12.9406 8.12683 12.8803C8.17675 12.8121 8.2064 12.7343 8.2158 12.647C8.28181 12.5849 8.31619 12.5184 8.31894 12.4475C8.41491 12.3665 8.47036 12.2664 8.4853 12.147C8.54298 12.078 8.58845 12.0025 8.62172 11.9204C8.66275 11.8375 8.69962 11.7511 8.73232 11.6612C8.81996 11.5733 8.88651 11.4641 8.93196 11.3337C8.97634 11.2975 9.00823 11.2509 9.02763 11.1939C9.04703 11.1368 9.07475 11.0867 9.11081 11.0436C9.1657 10.9357 9.20645 10.8489 9.23306 10.7832C9.26688 10.7089 9.3007 10.6346 9.33453 10.5604C9.3889 10.5545 9.42247 10.5313 9.43521 10.4907C9.44796 10.4501 9.47792 10.4312 9.52508 10.434C9.52006 10.3638 9.53502 10.2994 9.56996 10.2407C9.58494 10.2313 9.60768 10.221 9.6382 10.2099C9.66816 10.191 9.68258 10.1737 9.68146 10.1581C9.65923 10.0663 9.65921 10.0113 9.6814 9.99323C9.70359 9.97516 9.72189 9.9575 9.73631 9.94025C9.82288 9.9467 9.88198 9.95216 9.91361 9.95663C9.94524 9.9611 9.99769 9.98297 10.0709 10.0223C10.1486 10.0139 10.2041 10.0237 10.2374 10.0516C10.2707 10.0794 10.3074 10.099 10.3473 10.1105C10.3806 10.1383 10.4062 10.167 10.4239 10.1965C10.4495 10.2252 10.4822 10.2452 10.5222 10.2567C10.5904 10.3358 10.6632 10.4222 10.7403 10.516C10.8175 10.6099 10.8902 10.6963 10.9585 10.7754C11.0523 10.8831 11.1459 10.987 11.2391 11.0869C11.3396 11.1783 11.4331 11.2821 11.5197 11.3985C11.5458 11.435 11.5936 11.5005 11.663 11.5952C11.7318 11.6821 11.809 11.7759 11.8945 11.8767C11.98 11.9775 12.0571 12.0713 12.126 12.1582C12.1942 12.2372 12.2406 12.2833 12.265 12.2964C12.2911 12.3329 12.3469 12.4015 12.4324 12.5023C12.5179 12.6031 12.6078 12.7113 12.7022 12.8268C12.8038 12.9337 12.9012 13.0372 12.9945 13.1371C13.0877 13.2371 13.151 13.301 13.1843 13.3288C13.2781 13.4366 13.3472 13.5273 13.3917 13.6011C13.4433 13.6663 13.4916 13.7396 13.5366 13.8212ZM11.0255 16.304C11.1026 16.178 11.1611 16.0657 11.201 15.9672C11.2409 15.8687 11.2808 15.7703 11.3207 15.6718C11.3917 15.5699 11.4336 15.4987 11.4463 15.4581C11.4591 15.4175 11.4757 15.3764 11.4962 15.335C11.5517 15.2348 11.6071 15.1347 11.6626 15.0345C11.7258 14.9335 11.7729 14.8264 11.804 14.7132C11.8483 14.677 11.8805 14.6343 11.9005 14.5851C11.9204 14.5358 11.9523 14.4892 11.9961 14.4453C11.9378 14.2866 11.8745 14.1677 11.8062 14.0887C11.7374 14.0018 11.6688 13.9188 11.6006 13.8398C11.5745 13.8033 11.5484 13.7668 11.5223 13.7303C11.4962 13.6939 11.4701 13.6574 11.444 13.6209C11.4112 13.6009 11.3824 13.5804 11.3574 13.5595C11.3402 13.5378 11.3191 13.5165 11.2941 13.4956C11.2758 13.4583 11.2489 13.4102 11.2133 13.3511C11.1795 13.3155 11.1459 13.2838 11.1126 13.2559C11.0793 13.2281 11.0493 13.192 11.0226 13.1477C10.9893 13.1199 10.9474 13.0812 10.8969 13.0316C10.8464 12.9821 10.7917 12.929 10.7329 12.8725C10.6813 12.8073 10.6341 12.7496 10.5913 12.6992C10.548 12.641 10.5133 12.5937 10.4872 12.5572C10.4689 12.5199 10.4511 12.4904 10.4339 12.4687C10.4239 12.4383 10.41 12.4084 10.3923 12.3789C10.3495 12.3285 10.3073 12.2859 10.2657 12.2511C10.2235 12.2085 10.1811 12.162 10.1383 12.1116C10.1161 12.1297 10.0937 12.1438 10.0709 12.1541C10.0554 12.1558 10.0404 12.1652 10.026 12.1825C9.97885 12.2896 9.9234 12.3898 9.85962 12.483C9.80361 12.5753 9.74816 12.6755 9.69326 12.7834C9.64558 12.8828 9.59817 12.986 9.55105 13.0931C9.50336 13.1924 9.45568 13.2917 9.408 13.3911C9.37306 13.4498 9.33812 13.5085 9.30319 13.5672C9.27546 13.6172 9.24441 13.6755 9.21003 13.742C9.17509 13.8007 9.14432 13.8629 9.11771 13.9286C9.09831 13.9856 9.07114 14.0435 9.0362 14.1022C8.97964 14.1868 8.93416 14.2623 8.89979 14.3288C8.86541 14.3953 8.83186 14.4735 8.79916 14.5633C8.82581 14.6076 8.86551 14.6701 8.91825 14.7508C8.97821 14.8229 9.03844 14.8989 9.09896 14.9788C9.15891 15.051 9.21082 15.12 9.25468 15.186C9.30631 15.2511 9.33685 15.295 9.34629 15.3175C9.41234 15.3654 9.4673 15.4224 9.51116 15.4884C9.55446 15.5465 9.60942 15.6035 9.67602 15.6592C9.71156 15.7182 9.75042 15.769 9.79261 15.8116C9.8348 15.8542 9.87726 15.9007 9.92001 15.9511C9.96276 16.0015 10.0191 16.0779 10.0891 16.1804C10.1585 16.275 10.2281 16.3736 10.2981 16.476C10.368 16.5785 10.4374 16.6731 10.5063 16.76C10.5751 16.8469 10.6298 16.8999 10.6703 16.9191C10.7419 16.8251 10.7973 16.725 10.8367 16.6187C10.8832 16.5038 10.9462 16.3989 11.0255 16.304ZM18.9617 9.07156C19.0471 9.06242 19.1101 9.06747 19.1506 9.08669C19.195 9.16046 19.2234 9.2281 19.2356 9.28961C19.255 9.3425 19.2675 9.40791 19.2731 9.48583C19.2893 9.60189 19.2954 9.68761 19.2915 9.74299C19.2949 9.78974 19.2946 9.84081 19.2908 9.89619C19.2919 10.0217 19.2967 10.1429 19.305 10.2598C19.3128 10.3689 19.3212 10.4858 19.3301 10.6105C19.3497 10.8832 19.3733 11.1594 19.4012 11.4391C19.429 11.7188 19.4527 11.995 19.4723 12.2678C19.4801 12.3769 19.484 12.4864 19.484 12.5963C19.4913 12.6976 19.4988 12.8028 19.5066 12.9119C19.5083 12.9353 19.5102 12.9626 19.5125 12.9937C19.5219 13.0163 19.5275 13.0392 19.5292 13.0626C19.5342 13.1328 19.5353 13.2033 19.5326 13.2743C19.537 13.3366 19.5415 13.3989 19.5459 13.4613C19.5482 13.4925 19.5501 13.5197 19.5518 13.5431C19.5535 13.5665 19.5596 13.5972 19.5702 13.6354C19.5591 13.6994 19.5544 13.7431 19.556 13.7664C19.565 13.8911 19.5781 14.0193 19.5953 14.1509C19.612 14.2748 19.6248 14.399 19.6337 14.5237C19.6421 14.6406 19.6502 14.7536 19.658 14.8627C19.6736 14.971 19.6856 15.0835 19.6939 15.2004C19.6984 15.2628 19.6992 15.3294 19.6965 15.4004C19.7015 15.4705 19.7065 15.5407 19.7116 15.6108C19.7233 15.7744 19.7391 15.9416 19.7592 16.1122C19.7787 16.275 19.7981 16.4378 19.8176 16.6006C19.8254 16.7097 19.8332 16.8188 19.8411 16.9279C19.8483 17.0292 19.8636 17.1336 19.887 17.241C19.8959 17.3657 19.8948 17.46 19.8837 17.524C19.8799 17.5794 19.8721 17.6352 19.8605 17.6914C19.7995 17.7136 19.7573 17.726 19.734 17.7285C19.7179 17.7224 19.6982 17.7205 19.6749 17.723C19.5684 17.7658 19.5007 17.8045 19.4718 17.839C19.4424 17.8657 19.4094 17.8967 19.3728 17.932C19.3418 17.9353 19.3029 17.9395 19.2563 17.9445C19.218 17.9564 19.1881 17.9753 19.1664 18.0012C19.1265 17.9897 19.0951 17.9892 19.0724 17.9995C19.0496 18.0097 19.0266 18.0161 19.0033 18.0186C18.8951 18.038 18.8221 18.0576 18.7844 18.0774C18.7472 18.1049 18.6937 18.1224 18.6238 18.1299C18.5544 18.0352 18.5022 17.9623 18.4672 17.9111C18.4317 17.852 18.3792 17.8302 18.3099 17.8454C18.1977 17.7004 18.1122 17.5446 18.0534 17.3782C18.0022 17.2109 17.9212 17.0625 17.8101 16.933C17.7979 16.8715 17.7835 16.8338 17.7668 16.8199C17.7502 16.806 17.7324 16.7765 17.7135 16.7314C17.678 16.6723 17.6461 16.609 17.6177 16.5414C17.5894 16.4737 17.5536 16.4108 17.5103 16.3526C17.4387 16.2268 17.3673 16.1049 17.2962 15.9868C17.2246 15.861 17.1566 15.7309 17.0922 15.5964C17.0644 15.5366 17.0405 15.4763 17.0205 15.4156C17 15.3472 16.9758 15.283 16.948 15.2231C16.9303 15.1936 16.9086 15.1645 16.8831 15.1359C16.8653 15.1064 16.8478 15.0807 16.8306 15.059C16.7779 14.9783 16.7251 14.8976 16.6724 14.8168C16.6274 14.7353 16.5747 14.6545 16.5141 14.5746C16.4958 14.5373 16.47 14.5047 16.4367 14.4769C16.4106 14.4404 16.3806 14.4044 16.3468 14.3687C16.3196 14.3167 16.2923 14.2646 16.2651 14.2126C16.2457 14.1597 16.2224 14.1072 16.1952 14.0552C16.1763 14.0101 16.1496 13.9658 16.1152 13.9224C16.0802 13.8711 16.0533 13.823 16.0344 13.7779C16.0161 13.7406 16.0016 13.7029 15.9911 13.6647C15.9805 13.6266 15.9547 13.594 15.9136 13.567C15.866 13.6663 15.8432 13.7316 15.8455 13.7628C15.8444 13.8571 15.8422 13.9359 15.8389 13.999C15.8428 14.0536 15.8464 14.1042 15.8498 14.151C15.8537 14.2055 15.8615 14.2597 15.8731 14.3134C15.892 14.3585 15.9031 14.4044 15.9065 14.4511C15.9354 14.6365 15.9607 14.8262 15.9824 15.0202C16.0036 15.2064 16.0209 15.393 16.0343 15.58C16.0371 15.7289 16.0413 15.8423 16.0469 15.9202C16.0602 15.9973 16.0736 16.0744 16.0869 16.1515C16.1003 16.2286 16.1061 16.3104 16.1045 16.397C16.1101 16.4749 16.1195 16.5524 16.1329 16.6295C16.1457 16.8087 16.1582 16.984 16.1705 17.1555C16.19 17.3183 16.2062 17.4893 16.219 17.6685L16.2391 17.9491C16.2452 18.0348 16.2391 18.114 16.2208 18.1866C16.1043 18.1991 16.0264 18.2035 15.987 18.1998C15.9553 18.1954 15.9195 18.1874 15.8796 18.176C15.8335 18.1887 15.7961 18.2124 15.7672 18.2469C15.7456 18.2727 15.7162 18.2994 15.679 18.327C15.593 18.3283 15.5464 18.3333 15.5392 18.3419C15.5326 18.3583 15.5181 18.3756 15.4959 18.3937C15.4732 18.404 15.4499 18.4064 15.426 18.4011C15.4099 18.395 15.3902 18.3932 15.3669 18.3957C15.3037 18.3867 15.2526 18.3844 15.2138 18.3885C15.1683 18.4091 15.1228 18.4296 15.0773 18.4502C15.0396 18.47 14.9977 18.4862 14.9516 18.499C14.8989 18.4183 14.8645 18.3199 14.8483 18.2038C14.8322 18.0877 14.7939 17.9898 14.7333 17.9099C14.7466 17.877 14.753 17.8567 14.7525 17.8489C14.7597 17.8403 14.7619 17.8165 14.7591 17.7775C14.7463 17.5983 14.7296 17.4195 14.709 17.2411C14.6884 17.0627 14.6716 16.8839 14.6588 16.7047C14.6482 16.5566 14.6262 16.4137 14.5929 16.2759C14.5673 16.1373 14.5492 15.994 14.5386 15.8459C14.5353 15.7992 14.5358 15.752 14.5402 15.7044C14.5447 15.6568 14.5449 15.6057 14.541 15.5512C14.5393 15.5278 14.5338 15.5049 14.5244 15.4823C14.5227 15.4589 14.5213 15.4395 14.5202 15.4239C14.4946 15.2853 14.4726 15.1423 14.4543 14.9951C14.4437 14.8471 14.4331 14.699 14.4225 14.5509C14.4086 14.4661 14.3944 14.3773 14.3799 14.2846C14.3732 14.1911 14.3662 14.0937 14.359 13.9924C14.3562 13.9534 14.357 13.9101 14.3614 13.8625C14.3659 13.815 14.3664 13.7678 14.3631 13.721L14.3279 13.2301C14.3057 13.1383 14.2934 13.0767 14.2912 13.0456C14.2968 13.0136 14.2984 12.982 14.2962 12.9508C14.2912 12.8807 14.2786 12.8153 14.2586 12.7546C14.2459 12.6853 14.2367 12.6117 14.2311 12.5338C14.2272 12.4792 14.2275 12.4281 14.2319 12.3806C14.2435 12.3243 14.2474 12.269 14.2435 12.2144C14.2351 12.0975 14.2192 11.9854 14.1959 11.8779C14.1803 11.7697 14.1683 11.6571 14.16 11.5402L14.0889 10.5467C14.085 10.4921 14.0772 10.438 14.0655 10.3843C14.0538 10.3305 14.0458 10.2725 14.0413 10.2102C14.0801 10.0961 14.1189 10.037 14.1578 10.0328C14.196 10.0209 14.2299 10.0016 14.2593 9.97485C14.3458 9.9813 14.4191 9.96562 14.479 9.9278C14.5805 9.9248 14.6418 9.90646 14.6629 9.8728C14.6796 9.88672 14.6996 9.89244 14.7229 9.88995C14.7534 9.87883 14.7806 9.87592 14.8044 9.88122C14.8266 9.86315 14.8449 9.84549 14.8593 9.82824C14.8738 9.81099 14.8959 9.79292 14.9259 9.77401C15.008 9.71812 15.0565 9.68544 15.0715 9.67599C15.0859 9.65874 15.1043 9.64108 15.1264 9.623C15.1653 9.61885 15.1894 9.62805 15.1989 9.65059C15.2161 9.67231 15.2441 9.68109 15.2829 9.67694C15.3007 9.70645 15.3224 9.73554 15.3479 9.76422C15.3734 9.7929 15.4023 9.81337 15.4345 9.82563C15.5061 9.95146 15.588 10.0566 15.6801 10.1409C15.7646 10.3361 15.8562 10.5226 15.955 10.7005C16.0616 10.8775 16.1721 11.0541 16.2865 11.2304C16.2882 11.2537 16.2943 11.2845 16.3048 11.3226C16.3148 11.353 16.3243 11.3755 16.3332 11.3903C16.3781 11.4718 16.4406 11.579 16.5206 11.7118C16.6077 11.836 16.6816 11.938 16.7421 12.0179C16.7598 12.0474 16.7812 12.0726 16.8062 12.0935C16.8312 12.1144 16.8526 12.1396 16.8703 12.1691C16.8964 12.2056 16.9189 12.2464 16.9378 12.2914C16.9567 12.3365 16.9792 12.3773 17.0052 12.4138C17.0508 12.5031 17.1002 12.5921 17.1535 12.6806C17.214 12.7605 17.2748 12.8443 17.3359 12.932C17.3548 12.9771 17.3736 13.0222 17.3925 13.0673C17.4192 13.1116 17.4458 13.1558 17.4725 13.2001C17.5447 13.3337 17.6069 13.437 17.659 13.5099C17.7184 13.5743 17.7629 13.648 17.7923 13.7313C17.8511 13.7878 17.8989 13.8533 17.9355 13.9279C17.9716 13.9948 18.0224 14.0482 18.0879 14.0883C18.0929 14.0485 18.0926 13.9347 18.087 13.7469C18.0808 13.5512 18.0696 13.3404 18.0534 13.1144C18.0373 12.8884 18.0219 12.6741 18.0074 12.4715C17.9929 12.2689 17.9831 12.1326 17.9781 12.0624C17.9631 11.852 17.9444 11.6459 17.9221 11.4442C17.8993 11.2346 17.8806 11.0285 17.8661 10.8259C17.8544 10.6622 17.8427 10.4986 17.831 10.335C17.8265 10.1627 17.8223 9.99432 17.8183 9.82985C17.8199 9.7433 17.8144 9.66537 17.8016 9.59607C17.796 9.51815 17.7943 9.43981 17.7965 9.36105C17.8015 9.32126 17.8142 9.28063 17.8347 9.23918C17.8553 9.19772 17.8719 9.15668 17.8846 9.11606C17.9845 9.08967 18.0636 9.10085 18.1219 9.14958C18.1668 9.12122 18.2203 9.10372 18.2825 9.09707C18.3524 9.0896 18.4104 9.07947 18.4564 9.06669C18.518 9.05226 18.5527 9.04462 18.5605 9.04379C18.5677 9.03517 18.5791 9.03003 18.5946 9.02836C18.6268 9.04063 18.6548 9.04941 18.6787 9.05471C18.7103 9.05918 18.7461 9.06713 18.786 9.07856C18.8543 9.04771 18.9128 9.04537 18.9617 9.07156ZM25.9505 16.9813C25.9283 16.9994 25.9061 17.0175 25.8839 17.0355C25.8617 17.0536 25.8395 17.0717 25.8173 17.0898C25.7352 17.1457 25.6595 17.1812 25.5901 17.1965C25.5202 17.204 25.4453 17.2513 25.3655 17.3383C25.3316 17.3027 25.3069 17.2857 25.2914 17.2873C25.2758 17.289 25.2486 17.2919 25.2098 17.2961C25.1088 17.3069 25.0486 17.2858 25.0292 17.2329C24.9986 17.2441 24.9495 17.2689 24.8819 17.3076C24.8219 17.3454 24.777 17.3738 24.7471 17.3927C24.8097 17.2839 24.8507 17.201 24.8701 17.1439C24.8895 17.0869 24.8976 17.035 24.8942 16.9882C24.8987 16.9407 24.8992 16.8935 24.8958 16.8467C24.8997 16.7914 24.9138 16.7152 24.9382 16.6184C24.9515 16.5856 24.9609 16.5532 24.9665 16.5212C24.972 16.4892 24.9811 16.4528 24.9939 16.4122C25.0244 16.2912 25.046 16.1554 25.0587 16.0048C25.0791 15.8535 25.1165 15.7199 25.1709 15.6042C25.1614 15.4717 25.1797 15.3441 25.2257 15.2214C25.2795 15.0979 25.3213 14.9717 25.3512 14.8428C25.3634 14.7944 25.3795 14.7456 25.3994 14.6963C25.4272 14.6463 25.4471 14.597 25.4593 14.5486C25.4848 14.4674 25.5028 14.3908 25.5133 14.319C25.5311 14.2386 25.5491 14.1621 25.5673 14.0895C25.6133 13.8568 25.6596 13.6281 25.7061 13.4033C25.7521 13.1706 25.7941 12.9384 25.8323 12.7066C25.8373 12.6668 25.842 12.6231 25.8464 12.5756C25.8586 12.5271 25.8711 12.4826 25.8839 12.442C25.9143 12.321 25.9293 12.2016 25.9287 12.0839C25.9353 11.9575 25.9657 11.8365 26.0201 11.7207C26.0084 11.667 26.0048 11.6164 26.0092 11.5688C26.0214 11.5204 26.0333 11.468 26.0449 11.4118C26.0566 11.3556 26.0685 11.3033 26.0807 11.2549C26.0929 11.2065 26.102 11.1702 26.1081 11.146C26.1397 11.0405 26.1605 10.948 26.1704 10.8684C26.1876 10.7802 26.2239 10.686 26.2794 10.5858C26.2794 10.5858 26.2882 10.5456 26.3059 10.4652C26.3231 10.377 26.3436 10.2806 26.3674 10.176C26.3912 10.0713 26.4117 9.97492 26.4289 9.88671C26.4455 9.79071 26.4533 9.73492 26.4522 9.71933C26.4632 9.65533 26.4707 9.59564 26.4746 9.54026C26.4862 9.48405 26.4975 9.42394 26.5086 9.35994C26.5214 9.31932 26.5347 9.28649 26.5485 9.26145C26.5618 9.22862 26.5749 9.19189 26.5876 9.15126C26.6048 9.06305 26.6206 8.95536 26.6349 8.82819C26.6493 8.70102 26.6734 8.60029 26.7072 8.526C26.7266 8.46896 26.7663 8.42153 26.8262 8.38372C26.8933 8.33728 26.9488 8.29209 26.9926 8.24814C27.1336 8.24877 27.234 8.23018 27.2939 8.19237C27.3616 8.15372 27.4248 8.1077 27.4836 8.0543C27.523 8.05794 27.5588 8.06589 27.591 8.07815C27.6304 8.08179 27.6695 8.08153 27.7084 8.07738C27.8677 8.22524 27.9807 8.38198 28.0473 8.5476C28.1217 8.71239 28.1923 8.8776 28.2589 9.04322C28.2884 9.12645 28.3178 9.20967 28.3472 9.2929C28.3761 9.36833 28.4089 9.44335 28.4455 9.51795C28.455 9.5405 28.4686 9.56653 28.4864 9.59604C28.5036 9.61776 28.5211 9.64337 28.5388 9.67288C28.5821 9.73106 28.6179 9.79398 28.6463 9.86162C28.6824 9.92843 28.7146 9.99566 28.7429 10.0633C28.7934 10.1129 28.8331 10.1754 28.862 10.2508C28.8903 10.3184 28.915 10.3904 28.9361 10.4667C28.9645 10.5343 28.9928 10.6019 29.0211 10.6696C29.0489 10.7294 29.0877 10.7802 29.1377 10.822C29.1594 10.9061 29.1927 10.9889 29.2377 11.0704C29.2821 11.1442 29.3154 11.227 29.3377 11.3189C29.3887 11.3762 29.4517 11.4912 29.5267 11.6638C29.6011 11.8286 29.6767 12.0089 29.7533 12.2049C29.83 12.4009 29.9022 12.5895 29.9699 12.7707C30.0377 12.9519 30.086 13.0802 30.1149 13.1556C30.1349 13.2163 30.1718 13.2948 30.2257 13.3911C30.279 13.4796 30.3279 13.5608 30.3723 13.6346C30.4095 13.717 30.447 13.8033 30.4847 13.8934C30.5303 13.9828 30.5678 14.0691 30.5972 14.1523C30.6189 14.2364 30.6403 14.3165 30.6614 14.3928C30.6903 14.4682 30.7194 14.5476 30.7489 14.6308C30.7683 14.6837 30.7952 14.7318 30.8297 14.7753C30.8635 14.8109 30.8905 14.8591 30.9105 14.9197C30.946 14.9788 30.9696 15.0351 30.9813 15.0888C31.0007 15.1417 31.0321 15.1973 31.0754 15.2555C31.0738 15.342 31.0815 15.3961 31.0988 15.4179C31.116 15.4396 31.1335 15.4652 31.1512 15.4947C31.194 15.655 31.2384 15.7838 31.2845 15.8809C31.3301 15.9703 31.3567 16.0695 31.3646 16.1786C31.3712 16.2721 31.356 16.3326 31.3188 16.3601C31.2894 16.3868 31.2495 16.4304 31.199 16.4907C31.1408 16.5519 31.0895 16.6006 31.0451 16.6368C31.0085 16.6721 30.9475 16.6943 30.862 16.7035C30.7682 16.7056 30.7108 16.7235 30.6897 16.7572C30.677 16.7978 30.6673 16.8264 30.6606 16.8428C30.5669 16.8449 30.5044 16.8477 30.4734 16.851C30.4506 16.8613 30.4237 16.8681 30.3926 16.8714C30.3693 16.8739 30.3424 16.8807 30.3119 16.8918C30.2897 16.9099 30.2645 16.9401 30.2362 16.9824C30.1774 16.9259 30.1188 16.8732 30.0605 16.8245C30.0106 16.7827 29.9639 16.7327 29.9206 16.6746C29.9111 16.5421 29.8806 16.3883 29.8289 16.2132C29.785 16.0373 29.74 15.9008 29.6939 15.8036C29.6017 15.6093 29.5137 15.4185 29.4298 15.2312C29.3537 15.043 29.2774 14.851 29.2007 14.655C29.1713 14.5718 29.1385 14.4967 29.1024 14.4299C29.0741 14.3623 29.0416 14.2912 29.005 14.2166C29.025 14.2773 29.0336 14.3431 29.0308 14.414C29.0353 14.4764 29.0203 14.5408 28.986 14.6073C28.9715 14.6245 28.9496 14.6465 28.9202 14.6732C28.8908 14.6999 28.8767 14.7211 28.8778 14.7366C28.7902 14.8245 28.7139 14.9073 28.649 14.9849C28.6668 15.1243 28.6544 15.2238 28.6117 15.2833C28.569 15.3429 28.5221 15.3989 28.4711 15.4515C28.3396 15.4734 28.2574 15.4743 28.2247 15.4543C28.1919 15.4342 28.1481 15.4232 28.0932 15.4212C28.0615 15.4168 28.0305 15.4201 27.9999 15.4312C27.9689 15.4345 27.9378 15.4378 27.9067 15.4412C27.8446 15.4478 27.7852 15.4385 27.7286 15.4131C27.7042 15.4 27.6836 15.3865 27.667 15.3726C27.6581 15.3578 27.6453 15.3435 27.6287 15.3296C27.5621 15.2739 27.4847 15.2311 27.3964 15.2013C27.3154 15.1628 27.2349 15.1322 27.155 15.1093C27.089 15.0614 27.019 15.0139 26.9452 14.9668C26.8786 14.9112 26.8089 14.8676 26.7362 14.8361C26.6847 14.9908 26.6437 15.1287 26.6132 15.2497C26.5899 15.3621 26.5589 15.4754 26.5201 15.5894C26.4536 15.8635 26.4004 16.1048 26.3606 16.3132C26.3201 16.5138 26.2722 16.7192 26.2168 16.9293C26.1863 16.9404 26.156 16.9554 26.1261 16.9743C26.1039 16.9924 26.0734 17.0035 26.0345 17.0076L25.9505 16.9813ZM26.9142 14.3695C26.9685 14.2537 27.0187 14.1895 27.0648 14.1767C27.118 14.1553 27.1624 14.1191 27.1979 14.0682C27.2123 14.051 27.2265 14.0298 27.2403 14.0048C27.262 13.9789 27.2836 13.9531 27.3052 13.9272C27.3274 13.9091 27.3535 13.8906 27.3834 13.8717C27.4134 13.8528 27.4392 13.8304 27.4608 13.8046C27.5191 13.7434 27.5662 13.6912 27.6023 13.6481C27.6461 13.6041 27.7107 13.5776 27.7962 13.5685C27.9282 13.5543 28.0395 13.5778 28.13 13.6388C28.2199 13.692 28.3278 13.7236 28.4538 13.7337C28.4727 13.7788 28.5257 13.8085 28.6128 13.8227C28.6993 13.8292 28.7671 13.8455 28.8159 13.8717C28.7243 13.6852 28.6482 13.497 28.5876 13.3072C28.5343 13.1087 28.4696 12.9154 28.3935 12.7272C28.3346 12.5608 28.2682 12.399 28.1944 12.242C28.1199 12.0773 28.0461 11.9203 27.9728 11.7711C27.9072 11.621 27.8498 11.474 27.8003 11.3301C27.7509 11.1862 27.6901 11.0475 27.6179 10.9138C27.5658 11.0608 27.5159 11.2388 27.4683 11.4481C27.4206 11.6573 27.3868 11.8416 27.3669 12.0007C27.3719 12.0709 27.372 12.1258 27.367 12.1656C27.3553 12.2218 27.3434 12.2741 27.3312 12.3226C27.3185 12.3632 27.306 12.4077 27.2938 12.4561C27.2146 12.7708 27.1434 13.0886 27.0803 13.4094C27.0249 13.7295 26.954 14.0511 26.8676 14.3745L26.9142 14.3695ZM35.5041 14.7937C35.4919 14.8421 35.4872 14.8858 35.49 14.9247C35.4934 14.9715 35.5006 15.0178 35.5117 15.0638C35.5306 15.1089 35.5417 15.1548 35.545 15.2015C35.5395 15.3435 35.534 15.4304 35.5285 15.4624C35.4847 15.5064 35.3909 15.5635 35.2472 15.6338C35.1107 15.6956 34.9435 15.7645 34.7454 15.8406C34.5545 15.9081 34.3445 15.9816 34.1154 16.0611C33.8935 16.132 33.6793 16.202 33.4729 16.2711C33.2665 16.3403 33.0751 16.4001 32.8987 16.4503C32.7305 16.5076 32.6043 16.5486 32.52 16.5733C32.4817 16.5852 32.4434 16.5972 32.4051 16.6091C32.3752 16.628 32.3413 16.6473 32.3036 16.6671C32.2653 16.679 32.2265 16.6832 32.1871 16.6795C32.1483 16.6837 32.11 16.6956 32.0722 16.7154C32.0489 16.7179 32.0248 16.7087 31.9998 16.6878C31.9826 16.6661 31.9657 16.6483 31.949 16.6343C31.9457 16.5876 31.9354 16.5533 31.9182 16.5316C31.901 16.5099 31.8802 16.4925 31.8557 16.4794C31.8391 16.4655 31.8224 16.4516 31.8058 16.4376C31.7886 16.4159 31.7783 16.3817 31.775 16.3349C31.755 16.2743 31.7283 16.23 31.695 16.2021C31.6689 16.1657 31.6547 16.1318 31.6525 16.1007C31.6142 16.0027 31.5922 15.9147 31.5867 15.8368C31.5839 15.7979 31.5855 15.7663 31.5916 15.7421C31.5977 15.7179 31.6077 15.6932 31.6216 15.6682C31.6671 15.6476 31.7006 15.6244 31.7222 15.5985C31.7439 15.5727 31.7736 15.5499 31.8113 15.5301C31.8562 15.5018 31.9209 15.4752 32.0052 15.4505C32.089 15.418 32.1805 15.3846 32.2798 15.3505C32.3791 15.3163 32.4746 15.2825 32.5661 15.2492C32.6577 15.2158 32.7337 15.1841 32.7941 15.1541C32.8169 15.1438 32.8399 15.1374 32.8632 15.135C32.8865 15.1325 32.9054 15.1226 32.9198 15.1053C32.8953 14.9823 32.8748 14.8589 32.8581 14.735C32.8491 14.6104 32.8327 14.4904 32.8088 14.3752C32.8049 14.3206 32.7971 14.2665 32.7855 14.2128C32.7738 14.1591 32.7663 14.1088 32.7629 14.0621L32.757 13.8154C32.7358 13.5192 32.703 13.2244 32.6585 12.9308C32.614 12.6371 32.5811 12.3423 32.5599 12.0461L32.5315 11.6487C32.527 11.5864 32.5189 11.5283 32.5073 11.4746C32.5034 11.4201 32.4992 11.3616 32.4947 11.2993C32.4841 11.1512 32.4741 11.011 32.4646 10.8785C32.4623 10.7374 32.4559 10.5928 32.4453 10.4448L32.3683 9.36939C32.1946 9.3487 32.0357 9.36963 31.8914 9.43217C31.7466 9.48691 31.5971 9.53038 31.4428 9.56258C31.3845 9.51385 31.3493 9.45873 31.3371 9.39722C31.2688 9.31814 31.2221 9.26816 31.1972 9.24728C31.1722 9.22639 31.1403 9.16306 31.1014 9.05729C31.0392 8.95401 30.9878 8.89276 30.9473 8.87353C30.914 8.84568 30.8951 8.80059 30.8907 8.73825C30.8879 8.69929 30.8937 8.67118 30.9081 8.65394C30.9303 8.63586 30.9478 8.60651 30.9605 8.56588C31.0282 8.52724 31.0657 8.5036 31.0729 8.49498C31.0873 8.47773 31.102 8.46438 31.117 8.45493C31.1907 8.39208 31.2773 8.34356 31.3766 8.30938C31.4759 8.27521 31.5711 8.23755 31.662 8.19641C31.7381 8.16473 31.8099 8.12956 31.8776 8.09092C31.9453 8.05227 32.021 8.01669 32.1048 7.98417C32.2035 7.94221 32.3023 7.90024 32.401 7.85827C32.4998 7.8163 32.5949 7.77864 32.6865 7.7453C32.7475 7.72307 32.8055 7.71294 32.8604 7.71492C32.9226 7.70827 32.9833 7.68215 33.0427 7.63654C33.1448 7.64132 33.2497 7.63011 33.3573 7.6029C33.4722 7.56706 33.5945 7.52649 33.7243 7.4812C33.8542 7.43591 33.9804 7.39493 34.103 7.35826C34.2256 7.32159 34.3174 7.29215 34.3785 7.26991C34.4184 7.28135 34.447 7.29792 34.4642 7.31964C34.4814 7.34135 34.5058 7.35445 34.5375 7.35892C34.5469 7.38146 34.5569 7.4118 34.5675 7.44994C34.5775 7.48027 34.5947 7.50199 34.6191 7.51508C34.6252 7.6008 34.6491 7.66107 34.6908 7.69588C34.6886 7.77463 34.7066 7.863 34.745 7.96098C34.7905 8.05034 34.8163 8.13788 34.8225 8.22359C34.792 8.34464 34.7313 8.42573 34.6403 8.46686C34.5571 8.50717 34.4619 8.54483 34.3548 8.57984C34.2555 8.61401 34.1562 8.64819 34.0569 8.68237C33.957 8.70875 33.8768 8.73695 33.8164 8.76698C33.8242 8.87607 33.8323 8.98906 33.8406 9.10595C33.8568 9.22201 33.869 9.33848 33.8774 9.45537C33.8852 9.56447 33.8891 9.67398 33.8892 9.7839C33.897 9.893 33.9048 10.0021 33.9126 10.1112C33.9243 10.2748 33.9324 10.4428 33.9369 10.6151C33.9492 10.7865 33.9615 10.9579 33.9737 11.1294C33.991 11.3709 34.0122 11.6121 34.0373 11.8528C34.0623 12.0936 34.0913 12.3339 34.1241 12.5738C34.1346 12.6119 34.1427 12.67 34.1483 12.7479C34.1706 13.0596 34.1965 13.367 34.226 13.6701C34.2628 13.9645 34.3081 14.2698 34.3621 14.586C34.4636 14.583 34.5402 14.5591 34.5918 14.5143C34.6306 14.5102 34.665 14.4986 34.695 14.4797C34.7327 14.46 34.7665 14.4407 34.7965 14.4218C34.8425 14.409 34.9038 14.3907 34.9804 14.3668C35.0642 14.3342 35.1177 14.3167 35.141 14.3143C35.2115 14.3146 35.2542 14.31 35.2692 14.3005C35.2959 14.3448 35.3333 14.3761 35.3816 14.3945C35.4022 14.463 35.4188 14.5319 35.4316 14.6012C35.4516 14.6619 35.4758 14.726 35.5041 14.7937ZM41.431 9.83726C41.3717 9.9928 41.2846 10.1434 41.1698 10.2892C41.0628 10.4341 40.9591 10.5709 40.8587 10.6994C40.7794 10.7942 40.7123 10.8956 40.6574 11.0036C40.6025 11.1115 40.5393 11.2125 40.4677 11.3066C40.4106 11.3833 40.3532 11.4562 40.2955 11.5252C40.2373 11.5864 40.1835 11.655 40.1341 11.7309C40.0975 11.7662 40.0609 11.8016 40.0243 11.8369C39.9954 11.8714 39.9672 11.9137 39.9394 11.9637C40.0738 12.2006 40.2259 12.4121 40.3958 12.5981C40.5734 12.7832 40.7549 12.968 40.9404 13.1523C41.0331 13.2445 41.1255 13.3328 41.2176 13.4171C41.3092 13.4937 41.3897 13.5793 41.4591 13.674C41.5218 13.7851 41.5826 13.8689 41.6415 13.9254C41.7075 13.9733 41.7661 14.0259 41.8172 14.0833C41.8693 14.1562 41.9132 14.2222 41.9487 14.2812C41.9915 14.3316 42.0459 14.3808 42.1119 14.4287C42.1147 14.4676 42.1408 14.5041 42.1902 14.5381C42.2391 14.5643 42.2726 14.596 42.291 14.6333C42.2938 14.6723 42.296 14.7034 42.2977 14.7268C42.3071 14.7494 42.3124 14.7684 42.3135 14.784C42.2946 14.8489 42.2558 14.908 42.197 14.9614C42.1454 15.0061 42.098 15.0544 42.0548 15.1061C41.9771 15.1145 41.9127 15.1449 41.8617 15.1975C41.8107 15.25 41.7385 15.2813 41.6453 15.2913C41.6087 15.3266 41.5801 15.365 41.5596 15.4064C41.5385 15.4401 41.5097 15.4746 41.4731 15.5099C41.411 15.5166 41.3538 15.5384 41.3017 15.5754C41.2578 15.6193 41.2054 15.6524 41.1444 15.6746C41.0634 15.6362 40.997 15.5844 40.9454 15.5192C40.8932 15.4463 40.8269 15.3945 40.7464 15.3638C40.7359 15.3257 40.7181 15.2962 40.6931 15.2753C40.6753 15.2458 40.6576 15.2163 40.6398 15.1868C40.4971 15.0528 40.3617 14.9103 40.2335 14.7591C40.1052 14.6079 39.977 14.4567 39.8487 14.3055C39.7816 14.2421 39.7108 14.1829 39.6364 14.128C39.5693 14.0645 39.5018 13.9971 39.4341 13.9259C39.3919 13.8833 39.3492 13.8329 39.3059 13.7747C39.2626 13.7165 39.2157 13.6626 39.1651 13.6131C39.1074 13.5721 39.0569 13.5225 39.0136 13.4644C38.9703 13.4062 38.9201 13.3605 38.8629 13.3274C38.7958 13.3738 38.7372 13.4311 38.6873 13.4992C38.6374 13.5674 38.5792 13.6286 38.5126 13.6828C38.4544 13.744 38.3961 13.8052 38.3379 13.8664C38.2874 13.9268 38.2328 13.9836 38.174 14.0371C38.1713 14.2179 38.1761 14.3941 38.1883 14.5655C38.2 14.7292 38.2118 14.8928 38.2235 15.0565C38.2329 15.1889 38.2383 15.3179 38.2394 15.4434C38.2478 15.5603 38.2409 15.6828 38.2188 15.8108C38.1805 15.8227 38.1402 15.8074 38.098 15.7648C38.0631 15.7136 38.0259 15.6861 37.9865 15.6825C37.956 15.6936 37.9299 15.7121 37.9083 15.738C37.8944 15.763 37.8675 15.7698 37.8275 15.7584C37.7915 15.8015 37.7357 15.8428 37.6603 15.8823C37.6214 15.8864 37.5793 15.8988 37.5338 15.9194C37.4877 15.9321 37.4453 15.9406 37.4064 15.9448C37.3443 15.9514 37.301 15.9482 37.2766 15.9351C37.2028 15.9979 37.1387 16.0323 37.0844 16.0381C37.0383 16.0509 36.9997 16.0589 36.9687 16.0622C36.9492 16.0094 36.9301 15.9604 36.9112 15.9153C36.8917 15.8624 36.8759 15.8052 36.8637 15.7437C36.8381 15.715 36.8162 15.682 36.7979 15.6447C36.7873 15.6066 36.7729 15.5689 36.7546 15.5316C36.7607 15.5073 36.7626 15.4797 36.7604 15.4485C36.7581 15.4173 36.7559 15.3861 36.7537 15.355C36.7442 15.2225 36.7311 15.0943 36.7144 14.9705C36.6977 14.8466 36.6924 14.7176 36.6984 14.5835C36.6801 14.5462 36.6657 14.5085 36.6551 14.4704C36.6446 14.4322 36.6379 14.3937 36.6351 14.3547C36.6334 14.3313 36.6315 14.3041 36.6292 14.2729C36.6348 14.2409 36.6448 14.2163 36.6592 14.199C36.6286 14.1002 36.6056 13.9967 36.59 13.8884C36.5816 13.7715 36.5738 13.6624 36.5665 13.5611C36.5626 13.5066 36.5626 13.4516 36.5665 13.3962C36.5776 13.3322 36.5809 13.2691 36.5764 13.2067C36.5669 13.0742 36.5499 12.9465 36.5255 12.8235C36.501 12.7005 36.4843 12.5766 36.4754 12.4519C36.477 12.3654 36.4762 12.2987 36.4728 12.252C36.4695 12.2052 36.47 12.1581 36.4744 12.1105C36.4789 12.0629 36.4716 12.0165 36.4528 11.9714C36.4577 11.9317 36.4635 11.9035 36.4702 11.8871C36.4841 11.8621 36.4896 11.8301 36.4868 11.7911C36.4796 11.6898 36.4726 11.5924 36.4659 11.4989C36.4664 11.3968 36.4628 11.2912 36.455 11.1821C36.4494 11.1041 36.4441 11.0301 36.4391 10.96C36.4412 10.8812 36.4393 10.799 36.4331 10.7133C36.4281 10.6431 36.4273 10.5765 36.4306 10.5133C36.4416 10.4493 36.4488 10.3857 36.4521 10.3225C36.4549 10.2516 36.454 10.1849 36.4496 10.1226C36.4445 10.0525 36.4398 9.98622 36.4353 9.92388C36.4236 9.76024 36.4119 9.59659 36.4002 9.43295C36.3879 9.26151 36.3682 9.0948 36.3409 8.93282C36.3304 8.89469 36.3195 8.85266 36.3084 8.80674C36.2973 8.76081 36.2901 8.71447 36.2867 8.66771C36.2606 8.52132 36.2381 8.37061 36.2191 8.21559C36.2002 8.06057 36.1735 7.90638 36.1391 7.75302C36.1529 7.72798 36.159 7.70377 36.1573 7.68039C36.1551 7.64922 36.1532 7.62195 36.1515 7.59857C36.1487 7.55961 36.1462 7.52454 36.1439 7.49337C36.1412 7.45441 36.1345 7.41586 36.1239 7.37773C36.1383 7.36048 36.1528 7.34324 36.1672 7.32599C36.1811 7.30095 36.1952 7.27981 36.2096 7.26256C36.2562 7.25758 36.3031 7.25649 36.3503 7.2593C36.4047 7.25348 36.4524 7.26409 36.4935 7.2911C36.5312 7.27136 36.5728 7.25121 36.6183 7.23064C36.671 7.20145 36.7168 7.18478 36.7556 7.18062C36.8177 7.17398 36.8655 7.18458 36.8988 7.21243C36.9365 7.19269 36.9548 7.17503 36.9537 7.15944C36.9598 7.13523 36.99 7.12022 37.0444 7.11441C37.1448 7.09582 37.2145 7.08444 37.2533 7.08029C37.2999 7.07531 37.3424 7.06684 37.3806 7.0549C37.4051 7.06799 37.4259 7.08539 37.4431 7.10711C37.4603 7.12883 37.4775 7.15054 37.4947 7.17226C37.6701 7.21632 37.8124 7.2914 37.9218 7.39749C38.0384 7.49496 38.1655 7.57559 38.3031 7.6394C38.3358 7.65945 38.3683 7.67561 38.4005 7.68788C38.4327 7.70014 38.4649 7.7124 38.4971 7.72466C38.5703 7.76394 38.6439 7.80712 38.7177 7.85419C38.7915 7.90126 38.8686 7.94013 38.9491 7.97078C39.0296 8.00144 39.074 8.02025 39.0823 8.02721C39.0979 8.02555 39.1101 8.03209 39.1189 8.04685C39.2943 8.09091 39.4519 8.16044 39.5918 8.25541C39.7389 8.34176 39.8932 8.41949 40.0547 8.48859C40.1113 8.51395 40.1795 8.53806 40.2594 8.56092C40.3471 8.58296 40.4312 8.6093 40.5117 8.63996C40.5994 8.66199 40.6795 8.68875 40.7523 8.72024C40.8327 8.75089 40.8941 8.78752 40.9362 8.83012C41.0278 8.90671 41.1061 8.96115 41.171 8.99347C41.2432 9.01717 41.312 9.04907 41.3775 9.08918L41.4117 9.40353C41.4156 9.45808 41.4115 9.50956 41.3993 9.55798C41.3949 9.60556 41.3946 9.65663 41.3985 9.71118C41.4013 9.75014 41.4121 9.79217 41.431 9.83726ZM39.8129 9.70405C39.7241 9.66644 39.6356 9.63272 39.5473 9.60289C39.4586 9.56527 39.3803 9.51082 39.3126 9.43954C39.2571 9.42977 39.1575 9.40509 39.0137 9.36549C38.8694 9.3181 38.7213 9.27113 38.5692 9.22457C38.4244 9.16939 38.2881 9.12507 38.1605 9.0916C38.04 9.04952 37.9721 9.0293 37.9565 9.03096C37.9338 9.04125 37.9258 9.09315 37.9325 9.18666C37.9391 9.28017 37.9464 9.38147 37.9542 9.49057C37.962 9.59966 37.9695 9.70486 37.9768 9.80616C37.984 9.90747 37.9885 9.96981 37.9902 9.99319C38.0008 10.1412 38.0072 10.2858 38.0095 10.4269C38.0118 10.568 38.0104 10.7134 38.0055 10.8631C37.9916 10.8882 37.9816 10.9128 37.9756 10.937C37.9689 10.9534 37.9625 10.9737 37.9564 10.998C37.9487 11.1087 37.9513 11.2537 37.9641 11.4329C37.9769 11.6122 37.9872 11.7563 37.995 11.8654C37.9989 11.92 38.0026 11.9706 38.0059 12.0174C38.0093 12.0641 38.0171 12.1183 38.0293 12.1798C38.0681 12.1756 38.0948 12.1649 38.1092 12.1477C38.123 12.1226 38.1488 12.1002 38.1866 12.0805C38.2797 11.9606 38.3732 11.8446 38.4669 11.7325C38.5607 11.6204 38.658 11.504 38.759 11.3833C38.8022 11.3315 38.8452 11.2759 38.8879 11.2164C38.9306 11.1568 38.9778 11.1047 39.0293 11.0599C39.0648 11.009 39.0967 10.9624 39.125 10.9201C39.1527 10.87 39.1846 10.8234 39.2207 10.7803C39.3211 10.6518 39.4256 10.5268 39.5343 10.4052C39.6425 10.2759 39.7304 10.1369 39.798 9.98833C39.8496 9.94355 39.8956 9.87581 39.9361 9.78511C39.8812 9.78313 39.8401 9.75611 39.8129 9.70405Z" fill="white"/>
</svg>
