<svg width="24" height="24" viewBox="0 0 24 24" fill="none" xmlns="http://www.w3.org/2000/svg">
<path d="M7 19.3822H14V10.1393H12C11.5333 10.1393 11.15 10.2471 10.85 10.4628C10.55 10.6784 10.1917 10.9942 9.775 11.4102C9.44167 11.7491 9.05417 12.0995 8.6125 12.4616C8.17083 12.8236 7.63333 13.0893 7 13.2588V19.3822ZM5 21.2308V13.2356C4.13333 13.02 3.41667 12.5886 2.85 11.9416C2.28333 11.2946 2 10.5398 2 9.67712C2 8.86066 2.25417 8.13663 2.7625 7.50503C3.27083 6.87343 3.925 6.43439 4.725 6.18791C5.10833 5.44848 5.67917 4.84769 6.4375 4.38554C7.19583 3.9234 8.05 3.69232 9 3.69232C9.58333 3.69232 10.1292 3.78475 10.6375 3.96961C11.1458 4.15447 11.6083 4.40095 12.025 4.70904C12.1917 4.67823 12.35 4.65128 12.5 4.62817C12.65 4.60506 12.8167 4.59351 13 4.59351C14.1 4.59351 15.0417 4.95552 15.825 5.67955C16.6083 6.40358 17 7.27396 17 8.29068C17 8.62959 16.9542 8.95309 16.8625 9.26119C16.7708 9.56929 16.6333 9.86198 16.45 10.1393H18C18.55 10.1393 19.0208 10.3203 19.4125 10.6823C19.8042 11.0443 20 11.4795 20 11.9879V17.5336C20 18.042 19.8042 18.4772 19.4125 18.8392C19.0208 19.2012 18.55 19.3822 18 19.3822H16V21.2308H5ZM4 9.67712C4 10.1855 4.19583 10.6207 4.5875 10.9827C4.97917 11.3447 5.45 11.5257 6 11.5257C6.53333 11.5257 6.9875 11.364 7.3625 11.0405C7.7375 10.7169 8.125 10.3549 8.525 9.95441C8.94167 9.53848 9.4125 9.1572 9.9375 8.81059C10.4625 8.46398 11.15 8.29068 12 8.29068H15C15 7.78232 14.8042 7.34713 14.4125 6.98512C14.0208 6.6231 13.55 6.44209 13 6.44209C12.5833 6.44209 12.2333 6.49216 11.95 6.59229L11.525 6.74249L10.75 6.1417C10.5667 6.00305 10.3292 5.86826 10.0375 5.73732C9.74583 5.60638 9.4 5.54091 9 5.54091C8.46667 5.54091 7.97917 5.67185 7.5375 5.93373C7.09583 6.19562 6.75833 6.54993 6.525 6.99667L6.175 7.68989L5.375 7.94407C4.95833 8.06731 4.625 8.28683 4.375 8.60263C4.125 8.91843 4 9.27659 4 9.67712ZM16 17.5336H18V11.9879H16V17.5336Z" fill="#1C1B1F"/>
</svg>
