<svg width="24" height="24" viewBox="0 0 24 24" fill="none" xmlns="http://www.w3.org/2000/svg">
<path d="M19.05 18.0909L16.125 15.4546L13.925 17.4545L13.225 16.8182C12.8417 16.4697 12.65 16.0379 12.65 15.5227C12.65 15.0076 12.8417 14.5758 13.225 14.2273L17.45 10.3864C17.8333 10.0379 18.3083 9.86364 18.875 9.86364C19.4417 9.86364 19.9167 10.0379 20.3 10.3864L21 11.0227L18.8 13.0227L21.7 15.6818C21.9 15.8636 22 16.0758 22 16.3182C22 16.5606 21.9 16.7727 21.7 16.9546L20.45 18.0909C20.25 18.2727 20.0167 18.3636 19.75 18.3636C19.4833 18.3636 19.25 18.2727 19.05 18.0909ZM22 3.81819L10.65 14.1364L10.775 14.2273C11.1583 14.5758 11.35 15.0076 11.35 15.5227C11.35 16.0379 11.1583 16.4697 10.775 16.8182L10.075 17.4545L7.875 15.4546L4.95 18.0909C4.75 18.2727 4.51667 18.3636 4.25 18.3636C3.98333 18.3636 3.75 18.2727 3.55 18.0909L2.3 16.9546C2.1 16.7727 2 16.5606 2 16.3182C2 16.0758 2.1 15.8636 2.3 15.6818L5.2 13.0227L3 11.0227L3.7 10.3864C4.08333 10.0379 4.55833 9.86364 5.125 9.86364C5.69167 9.86364 6.16667 10.0379 6.55 10.3864L6.65 10.5L18 0.181824H22V3.81819ZM6.95 8.31819L2 3.81819V0.181824H6L10.95 4.68182L9.525 5.95455L5.175 2.00001H4V3.06819L8.35 7.02273L6.95 8.31819ZM9.25 12.8409L20 3.06819V2.00001H18.825L8.075 11.7727L9.25 12.8409Z" fill="#1C1B1F"/>
</svg>
